<svg width="2195" height="2195" viewBox="0 0 2195 2195" fill="none" xmlns="http://www.w3.org/2000/svg">
<g clip-path="url(#clip0_53_31)">
<rect width="2195" height="2195" fill="#39631C"/>
<path d="M1385.03 449.832C1378.1 452.095 1373.17 455.423 1367.97 461.28C1355.43 475.524 1357.57 498.687 1372.5 512.532C1375.83 515.594 1387.03 522.25 1399.3 528.374C1429.96 543.683 1443.56 555.53 1455.29 577.362C1464.09 594.002 1464.36 592.937 1451.42 598.928C1426.09 610.643 1411.43 610.11 1382.9 596.931C1363.03 587.746 1353.97 585.882 1341.7 588.411C1314.24 594.136 1306.11 630.611 1327.44 652.842C1334.5 660.031 1341.17 664.024 1350.63 666.42C1378.5 673.609 1402.1 653.508 1399.03 625.153V625.153C1398.57 620.993 1402.27 617.579 1406.38 618.378L1413.83 619.828C1422.63 621.559 1440.09 624.487 1452.89 626.351C1465.69 628.215 1476.62 630.078 1477.16 630.345C1479.15 631.676 1501.02 673.875 1500.35 675.073C1499.82 675.872 1477.69 676.271 1444.23 676.271L1393.25 676.149C1390.3 676.142 1387.38 676.791 1384.7 678.048L1381.96 679.333C1373.57 683.194 1364.9 691.58 1360.77 699.967L1359.74 702.069C1358.4 704.803 1357.7 707.806 1357.7 710.85L1357.3 1095.87L1357.04 1481.88C1357.04 1484.28 1357.47 1486.67 1358.31 1488.92L1359.83 1492.97C1363.57 1502.96 1373.03 1512.41 1383.3 1516.27C1390.76 1519.06 1391.96 1519.06 1459.56 1518.53C1524.62 1518.13 1528.88 1517.87 1538.35 1515.2C1568.08 1506.95 1588.74 1494.97 1608.61 1474.73C1629.67 1453.3 1643.27 1427.21 1648.34 1398.06C1651.27 1381.55 1651.27 1194.51 1648.34 1178.01C1644.2 1154.44 1633.81 1132.08 1617.94 1112.38C1612.61 1105.85 1607.81 1099.73 1607.01 1098.8C1606.21 1097.6 1607.67 1095.07 1612.47 1090.01C1630.34 1071.11 1643.67 1044.09 1648.34 1017.2C1651.27 1000.56 1651.27 813.653 1648.34 797.013C1639.27 744.962 1601.94 701.298 1551.41 683.593L1548.27 682.506C1543.6 680.892 1539.69 677.606 1537.3 673.282L1529.02 658.3C1522.48 646.319 1517.02 636.335 1517.02 635.803C1517.02 635.403 1519.55 635.403 1522.75 635.669C1525.82 636.069 1547.55 638.199 1571.01 640.462C1594.48 642.592 1628.61 645.92 1646.87 647.65C1684.73 651.511 1685 651.511 1685 649.647C1685 646.585 1671.93 634.471 1660.87 627.017C1636.07 610.509 1618.07 606.116 1513.02 591.074C1502.35 589.609 1492.09 588.012 1490.09 587.613C1487.55 587.08 1485.29 584.684 1481.55 578.427C1471.96 561.92 1450.22 541.553 1429.69 529.838L1428.8 529.322C1425.52 527.426 1425.09 522.86 1427.96 520.386V520.386C1436.63 513.065 1440.23 504.146 1440.36 490.567C1440.36 478.187 1437.29 470.466 1428.36 461.28C1420.23 453.027 1411.96 449.566 1399.03 449.033C1393.16 448.9 1386.9 449.166 1385.03 449.832ZM1407.96 462.745C1424.49 468.336 1432.09 487.372 1424.36 503.613C1420.76 511.334 1415.29 514.529 1405.7 514.529C1395.96 514.396 1389.03 511.068 1381.83 503.214C1372.5 492.83 1370.63 482.846 1376.1 472.596C1381.7 461.946 1394.36 458.085 1407.96 462.745ZM1366.37 603.188C1386.1 612.107 1392.1 634.604 1378.37 648.316C1367.57 659.099 1349.17 657.768 1337.57 645.387C1330.77 638.332 1328.5 632.608 1328.5 623.689C1328.5 613.838 1331.57 608.113 1339.04 603.587C1345.97 599.46 1357.7 599.194 1366.37 603.188ZM1519.55 758.94C1535.42 762.534 1552.08 775.314 1560.35 789.957C1569.01 805.399 1569.01 805.399 1569.01 906.838C1569.01 968.473 1568.48 1000.56 1567.55 1005.35C1562.61 1028.78 1544.75 1047.81 1521.15 1054.87C1515.15 1056.6 1506.89 1057 1476.09 1057H1458.36C1447.31 1057 1438.36 1048.04 1438.36 1037V907.237V777.476C1438.36 766.43 1447.31 757.476 1458.36 757.476H1476.09C1496.75 757.476 1516.35 758.141 1519.55 758.94ZM1524.35 1142.2C1535.95 1146.19 1542.35 1150.45 1551.15 1159.9C1559.81 1169.09 1565.15 1178.8 1567.55 1189.85C1568.48 1194.78 1569.01 1225.4 1569.01 1289.03C1569.01 1389.54 1569.01 1389.27 1561.28 1403.65C1556.75 1412.3 1543.55 1425.48 1534.88 1430.01C1521.95 1436.93 1515.82 1437.73 1475.42 1437.73H1458.36C1447.31 1437.73 1438.36 1428.77 1438.36 1417.73V1288.63V1159.53C1438.36 1148.49 1447.31 1139.53 1458.36 1139.53H1477.42C1513.15 1139.53 1517.28 1139.8 1524.35 1142.2Z" fill="white"/>
<path d="M681.638 677.603C669.239 679.866 652.708 685.723 639.642 692.513C603.513 711.283 576.582 744.696 565.783 784.233C562.984 794.217 562.05 801.805 561.117 821.374C559.651 849.729 559.651 1175.88 560.984 1307.93L561.89 1394.55C561.908 1396.26 562.145 1397.96 562.596 1399.61L565.517 1410.3C572.449 1435.2 583.381 1454.37 601.246 1473C618.311 1490.71 634.176 1501.49 655.107 1509.61C685.637 1521.33 722.167 1522.13 752.697 1511.74C799.492 1495.9 835.488 1457.43 848.82 1408.84L851.706 1398.38C852.18 1396.66 852.422 1394.89 852.427 1393.11L852.82 1232.99L853.207 1075.58C853.215 1072.04 852.284 1068.56 850.509 1065.5L850.287 1065.12C844.421 1054.74 846.554 1055 779.761 1055C720.567 1055 720.434 1055 716.301 1057.93C707.369 1064.32 707.102 1065.39 707.102 1095.6C707.102 1122.1 707.235 1123.03 710.168 1127.29C715.768 1135.01 718.967 1135.81 746.698 1136.61L752.293 1136.75C763.128 1137.04 771.762 1145.91 771.762 1156.75V1257.88C771.762 1389.67 771.895 1387.14 763.896 1402.85C759.496 1411.5 749.497 1422.42 741.365 1427.61C732.566 1433.07 717.101 1437.73 707.502 1437.73C677.238 1437.59 650.041 1415.63 643.909 1386.08C641.909 1376.62 641.775 819.643 643.775 809.26C647.375 790.224 660.84 773.051 679.105 763.999C688.97 759.073 691.637 758.408 702.036 757.875C722.567 756.677 738.699 762.667 752.431 776.645C768.296 792.886 771.762 804.601 771.762 842.407C771.762 872.626 772.562 876.087 780.294 881.678C784.161 884.474 786.027 884.607 810.291 885.006C839.221 885.539 843.354 884.607 849.22 876.753C852.287 872.759 852.42 871.827 852.82 840.943C853.353 798.477 850.687 783.434 837.488 756.81C819.624 720.468 786.294 692.912 745.765 680.798C735.232 677.736 731.099 677.204 711.102 676.804C698.703 676.671 685.371 676.937 681.638 677.603Z" fill="white"/>
<path d="M1078 678.402C1027.07 687.587 981.74 727.39 965.875 776.911C958.009 801.406 958.409 779.574 958.409 1157.11V1498.06C958.409 1501.44 959.27 1504.78 960.91 1507.74L961.209 1508.28C966.542 1517.73 970.674 1518.93 999.071 1518.93C1026.8 1518.93 1030.67 1518 1036.13 1510.41V1510.41C1038.04 1507.73 1039.07 1504.51 1039.08 1501.22L1039.47 1322.31L1039.73 1141.34C1039.73 1139.51 1041.01 1137.93 1042.8 1137.54V1137.54C1044.4 1137.14 1073.6 1137 1107.73 1137.14L1149.92 1137.41C1160.89 1137.48 1169.75 1146.37 1169.79 1157.34L1170.39 1321.91L1171.04 1501.22C1171.05 1504.52 1172.08 1507.73 1173.99 1510.41V1510.41C1179.72 1518.4 1183.32 1519.2 1213.05 1518.66C1242.65 1518.26 1244.11 1517.73 1249.18 1508.28C1251.58 1503.75 1251.71 1491.91 1251.71 1157.51C1251.71 780.373 1252.11 800.074 1244.25 776.645C1226.91 725.127 1181.72 686.123 1129.06 677.736C1117.06 675.739 1090.53 676.138 1078 678.402ZM1122.53 759.339C1145.06 766.129 1162.25 783.567 1167.99 805.266C1169.99 813.254 1170.25 825.101 1170.25 934.793L1170.36 1035.65C1170.38 1046.7 1161.42 1055.67 1150.36 1055.67H1105.06H1059.73C1048.69 1055.67 1039.73 1046.71 1039.73 1035.67V935.459C1039.73 831.891 1040 814.185 1041.73 807.396C1047.73 784.366 1062.66 768.125 1085.06 760.537C1095.33 757.076 1113.19 756.411 1122.53 759.339Z" fill="white"/>
<circle cx="440" cy="1104" r="40" fill="white"/>
<circle cx="1755" cy="1104" r="40" fill="white"/>
<circle cx="2130" cy="65" r="25" fill="white"/>
<circle cx="2130" cy="2130" r="25" fill="white"/>
<circle cx="65" cy="2130" r="25" fill="white"/>
<circle cx="65" cy="65" r="25" fill="white"/>
</g>
<defs>
<clipPath id="clip0_53_31">
<rect width="2195" height="2195" fill="white"/>
</clipPath>
</defs>
</svg>
